<svg width="83" height="64" viewBox="0 0 83 64" fill="none" xmlns="http://www.w3.org/2000/svg">
<path fill-rule="evenodd" clip-rule="evenodd" d="M2.60663 2.87792C8.30824 32.9703 43.325 47.5871 79.8807 50.9107C80.5084 50.9687 80.9597 51.4081 80.8845 51.8921C80.8093 52.3762 80.2395 52.7241 79.6117 52.6661C42.032 49.2512 6.19947 34.0678 0.338753 3.13217C0.246185 2.65037 0.68013 2.20203 1.30785 2.13066C1.93269 2.05928 2.51406 2.39388 2.60663 2.87792Z" fill="#757575"/>
<path fill-rule="evenodd" clip-rule="evenodd" d="M79.0601 51.7265C77.4344 50.8097 75.3776 49.6766 75.1491 49.5428C68.9557 45.9159 63.824 41.7425 59.3055 36.8465C58.9381 36.4494 59.0597 35.8963 59.5746 35.613C60.0895 35.3297 60.8068 35.4234 61.1742 35.8205C65.5538 40.5693 70.5293 44.6178 76.5376 48.1353C76.8876 48.3406 81.5132 50.8856 82.3983 51.4544C82.7628 51.6864 82.8756 51.905 82.8958 51.9585C83.0173 52.2395 82.945 52.4604 82.8467 52.621C82.7339 52.8016 82.4533 53.0649 81.9095 53.1987C81.3396 53.337 80.0725 53.3995 79.7543 53.4351C74.9553 53.9839 69.5371 54.2738 64.605 55.3267C59.9013 56.3304 55.6346 58.0301 52.8981 61.4361C52.5654 61.851 51.8567 61.9781 51.3186 61.7216C50.7806 61.4651 50.6156 60.9186 50.9483 60.5038C54.0088 56.6962 58.7357 54.7444 63.9918 53.6225C68.895 52.5763 74.2639 52.2596 79.0601 51.7265Z" fill="#757575"/>
</svg>
