<svg width="38" height="35" viewBox="0 0 38 35" fill="none" xmlns="http://www.w3.org/2000/svg">
<path fill-rule="evenodd" clip-rule="evenodd" d="M4.59121 10.4951C5.74851 7.66851 6.51542 4.65778 7.23706 1.73459C7.39031 1.10473 7.01564 0.460221 6.39649 0.342433C5.78215 0.178946 5.1579 0.569643 5.00992 1.15386C4.31298 3.98739 3.57996 6.90899 2.46906 9.60218C2.22933 10.1758 2.50785 10.8558 3.09292 11.1084C3.67755 11.361 4.35102 11.0687 4.59121 10.4951Z" fill="#757575"/>
<path fill-rule="evenodd" clip-rule="evenodd" d="M15.1909 20.6928C20.5318 16.5456 25.3238 11.7337 30.783 7.69267C31.2905 7.33502 31.3995 6.60754 31.0228 6.10146C30.6455 5.59533 29.9277 5.46632 29.4149 5.86962C23.9416 9.909 19.136 14.7193 13.7808 18.8649C13.2789 19.2694 13.1882 19.9989 13.5773 20.5064C13.9712 20.9682 14.689 21.0973 15.1909 20.6928Z" fill="#757575"/>
<path fill-rule="evenodd" clip-rule="evenodd" d="M32.627 31.635C29.8652 31.4547 27.1033 31.2741 24.341 31.0937C23.712 31.0211 23.163 31.513 23.1198 32.1555C23.077 32.7982 23.5597 33.3162 24.1892 33.3889C26.9556 33.5698 29.7215 33.7509 32.4875 33.9317C33.1218 33.9587 33.6675 33.4666 33.7071 32.8236C33.7414 32.2262 33.2608 31.662 32.627 31.635Z" fill="#757575"/>
</svg>
