<svg width="51" height="51" viewBox="0 0 51 51" fill="none" xmlns="http://www.w3.org/2000/svg">
<path d="M9.30784 33.6918C11.4721 32.8261 10.7896 31.9771 8.54209 32.7429C7.31014 33.1591 7.2102 33.259 7.49322 33.7085C7.75959 34.1413 8.17577 34.1413 9.30784 33.6918Z" fill="#757575"/>
<path d="M8.70867 34.4743C7.79303 34.8072 7.62655 35.007 8.04275 35.3233C8.4756 35.6563 9.35791 35.5397 10.1737 35.0569C11.3224 34.3577 10.207 33.9249 8.70867 34.4743Z" fill="#757575"/>
<path d="M41.6218 25.2844C40.7561 24.6517 40.5896 24.3521 40.9392 24.1357C41.1556 24.0025 42.5707 21.0724 43.5529 18.7417C44.8016 15.7783 44.9015 15.8616 40.1568 15.7783L36.7772 15.7117L37.0935 15.0958C39.8238 9.73509 38.8249 7.28783 34.8461 9.60191C33.8472 10.1846 32.6318 10.8838 32.149 11.1335C31.1169 11.6996 31.1502 11.8494 31.5664 9.03589C31.9493 6.42215 31.1835 5.62302 29.4354 6.80503C29.1191 7.02146 28.0037 7.88715 26.9715 8.71956C24.7739 10.5009 24.9571 10.4343 24.4909 9.53533C23.542 7.75399 22.1269 7.12136 21.5442 8.23678C20.795 9.66851 19.8129 14.8794 20.2624 15.0292C20.7951 15.2123 22.0104 13.2811 22.693 11.1668C22.8095 10.8338 23.492 11.5664 23.7085 12.2489C23.9748 13.098 24.3911 12.9149 27.0048 10.8338C27.987 10.0347 28.8361 9.40214 28.8528 9.40214C28.8861 9.40214 28.8028 9.95152 28.6696 10.6008C27.8039 15.0292 28.8028 14.5131 32.6984 12.5653C36.2111 10.8006 35.8782 10.7506 35.1624 12.9815L34.2634 15.8116C33.6807 17.6429 34.2634 18.4254 35.745 17.8094C36.411 17.5264 41.2721 17.6262 41.2721 17.9093C41.2721 17.9759 40.8061 18.8915 40.2567 19.9237C38.8083 22.604 38.5752 23.4031 38.1257 24.0025C37.6928 24.5518 38.0258 25.6839 38.7084 25.8171C39.4242 25.9503 40.3732 26.9492 42.1712 28.6639C36.8438 30.7616 36.7272 30.4619 39.5241 34.291C40.3065 35.3731 40.9392 36.2721 40.9059 36.3053C40.8726 36.322 39.7572 36.2721 38.4087 36.1722C34.9959 35.9225 34.6962 36.1056 35.5286 37.8037C36.0447 38.8525 36.028 38.8525 34.7794 38.12C32.1823 36.5717 30.1846 37.4208 32.6818 39.019C38.7084 42.898 39.4742 42.9979 38.7084 39.8681C38.1423 37.6039 38.159 37.5706 38.8249 37.6539C39.7406 37.7704 42.3043 37.837 43.0202 38.0867C45.2177 38.8692 44.8016 37.2376 41.8382 33.5584C40.9892 32.4929 40.2899 31.5607 40.2899 31.4774C40.2899 31.2776 43.9026 29.6462 44.6517 29.513C45.2344 29.4131 45.2843 28.9802 44.8681 28.331C44.3687 27.5485 43.2533 26.4664 41.6218 25.2844Z" fill="#757575"/>
<path d="M21.8438 37.1709C25.4065 37.3373 28.453 38.6026 31.9657 36.4883C36.3109 33.8912 32.8814 21.788 30.1178 17.909C28.2865 15.3452 25.7394 13.9635 22.493 15.6782C20.5286 16.7104 20.129 17.0434 17.6818 19.757C16.5164 21.0389 15.1845 22.3541 14.7184 22.6537C14.2522 22.97 13.6863 23.353 13.4532 23.5028C7.87609 27.3485 6.62745 28.3308 6.17796 29.263C4.946 31.8102 5.46206 35.0898 7.39323 36.8878C7.90932 37.3706 12.1046 40.1841 12.3044 40.1841C12.371 40.1841 12.704 40.5671 13.037 41.0332C15.5175 44.496 18.3477 45.345 20.9947 43.4472C22.8926 42.0987 22.8093 41.0165 20.6617 38.9522L19.9958 38.3196L20.6784 37.0876L21.8438 37.1709ZM6.94378 31.6603C7.55976 29.5627 10.6397 26.5494 10.3733 28.2974C10.0403 30.4783 11.9548 34.4406 14.0524 35.9555L14.9182 36.5882L14.3022 37.0044C11.1723 39.2019 5.87831 35.3396 6.94378 31.6603ZM20.0957 41.4327C19.6129 41.799 19.1801 41.0998 19.1801 41.0998C18.4642 40.3839 17.7983 40.6669 18.2977 41.3994C18.6473 41.8989 18.8305 41.8823 18.331 42.415C17.6152 43.1642 17.2988 43.031 15.5841 41.3994C12.8871 38.819 12.7207 38.4361 14.0359 37.9034C14.6851 37.637 14.7018 37.5038 15.1013 38.2197C15.8172 39.5016 16.6829 39.2852 18.4143 39.0854C18.6473 39.0521 18.8638 39.152 19.0136 39.3184L19.4797 39.8845C19.846 40.2341 20.462 41.1497 20.0957 41.4327ZM18.3976 36.8712C18.9969 37.3207 17.8149 38.2197 17.2988 38.2197C16.9492 38.2197 16.1169 37.6203 16.1169 37.3706C16.1169 37.0377 17.9814 36.5549 18.3976 36.8712ZM14.4521 34.3407C10.6896 30.9445 10.623 27.0821 14.2856 24.8513C16.5164 23.4862 18.4642 21.8713 19.8627 20.2231C20.3788 19.6238 20.9947 18.6749 21.3443 18.3919C21.8937 17.9257 21.977 18.3419 21.694 18.8081C18.2312 24.3186 20.129 30.8945 22.6096 33.6082C25.856 37.1542 31.2333 35.839 31.2333 31.8601C31.2333 30.9611 30.8503 30.778 30.5673 31.5771C28.736 36.9211 25.4231 33.4583 25.4064 33.4583C25.8226 32.0266 26.0224 30.8446 28.0368 29.879C31.6161 28.1809 28.5362 22.7536 24.7072 24.0022C23.1423 24.5183 21.3943 23.7026 21.2444 23.5361C21.2444 23.5194 21.594 19.2409 24.4575 17.5095C25.2732 17.0101 24.6572 16.3442 23.7083 16.8103C23.0757 17.1266 22.8093 16.7437 23.059 16.4607C23.7416 15.6949 24.8903 15.4784 25.6395 15.7948C32.2155 18.5583 36.4441 36.5882 28.453 36.4383C27.3875 36.4217 25.1401 36.0887 21.8438 35.7058C18.7639 35.3729 16.7495 36.4217 14.4521 34.3407ZM21.6107 26.0333C21.6107 25.8169 21.8105 25.717 22.5763 25.6338C23.109 25.5672 23.6418 25.4506 23.775 25.384C24.4076 25.0178 24.5574 25.2009 24.6573 26.4162C24.7738 27.7813 25.2566 28.9134 25.856 29.2297C26.089 29.3462 26.2722 29.5127 26.2722 29.5793C26.2722 29.7125 23.7916 31.5438 23.5918 31.5438C23.2755 31.5605 21.6107 26.9156 21.6107 26.0333ZM26.988 25.1177C27.2377 25.5006 27.7705 27.4484 27.7705 27.9811C27.7705 28.4473 27.4042 28.0144 26.9214 26.9822C26.2222 25.5338 26.2888 24.0522 26.988 25.1177Z" fill="#757575"/>
</svg>
