<svg width="39" height="38" viewBox="0 0 39 38" fill="none" xmlns="http://www.w3.org/2000/svg">
<path fill-rule="evenodd" clip-rule="evenodd" d="M17.3878 0.570018C17.1314 0.720882 16.1205 1.59589 15.1399 2.48598C12.6507 4.76402 12.3641 4.99031 11.9568 5.36747C7.71751 5.57867 6.64635 5.32221 7.40066 9.10888C7.52135 9.69725 7.49118 9.75758 6.26919 11.3567C3.35753 15.1736 3.49334 14.8266 4.4136 16.0184C4.60972 16.29 7.65716 20.5594 7.65716 20.5594C7.5063 22.0228 7.5515 22.1585 6.91787 22.762C6.25407 23.3805 4.98688 24.8741 4.03644 26.1564C3.67437 26.6543 3.25193 27.1974 3.10106 27.3633C2.43727 28.1176 0.626907 31.2405 0.310094 32.1608C-0.610171 34.8009 0.581589 34.9367 4.24756 32.5832L5.45447 31.8138C5.83163 36.9733 5.80151 37.5617 6.79721 37.5617C7.08385 37.5617 8.99984 35.0573 10.2218 33.0659C11.5796 30.8784 14.4309 27.1219 14.6271 27.2577C15.834 27.9819 16.4675 28.6004 18.5796 29.4151C18.8209 29.5056 19.0926 29.4905 19.3189 29.3849C19.6809 29.2038 20.2543 28.9021 21.5668 28.0271C22.8793 27.1521 22.9094 27.137 23.2111 27.4086C23.9202 28.0573 27.8426 33.9862 28.7628 35.8117C29.9697 38.2104 30.6789 38.663 31.2975 36.7319C31.735 35.344 32.0969 32.8397 32.3081 31.3763C32.3081 31.3763 35.8987 33.775 36.2155 34.0013C36.8492 34.4539 37.3771 34.4539 38.0711 34.0164C39.3384 33.2168 34.1035 24.4818 30.8901 22.0529C30.1961 21.5249 29.8642 21.1779 29.9245 21.0572C29.9849 20.9516 31.056 19.7749 32.2931 18.4322C35.5819 14.902 35.6121 15.4602 31.8255 11.6736C30.0755 9.92354 29.7586 9.38042 29.6078 9.0787C29.5323 8.92783 29.5625 7.88688 29.4267 6.80067C29.1099 4.41703 29.2607 4.53772 26.6357 4.68858C25.0064 4.7791 24.7047 4.76401 24.4332 4.5528C19.7564 0.977343 18.4741 -0.0786934 17.3878 0.570018ZM19.9977 2.9084C22.4266 4.79419 23.6335 5.56359 24.1615 5.59376C24.7348 5.62393 27.1789 5.5485 27.8276 5.53341L27.9935 8.36965C28.0086 8.73172 28.1594 9.06362 28.3857 9.33517C31.4331 12.7598 31.4935 12.9257 32.987 15.0529C30.1508 18.4473 29.3512 19.8956 28.6874 20.6046C28.2499 21.0723 28.3103 21.1176 28.3706 24.1952C24.6594 24.512 24.75 24.4366 23.5732 25.0853C20.4654 26.8051 18.8813 28.3439 18.8813 28.3439L17.5387 27.6198C16.3771 26.9862 13.6917 25.3418 13.0128 24.7534C12.9223 24.693 12.5452 24.2254 11.8361 24.2555L9.01493 24.3913L8.9395 21.0271C8.90933 20.0465 8.35104 19.3977 5.37904 15.6563C8.33596 11.0701 7.77785 11.7339 8.86407 9.80285C9.13562 9.305 9.09036 7.79637 9.09036 6.69507C9.09036 6.49895 9.24119 6.333 9.43732 6.31791C12.5451 6.1067 12.8619 6.13687 14.2045 5.06574C15.9545 3.64763 17.7499 2.04847 17.8404 1.83726C17.9913 1.46011 18.3835 1.65623 19.9977 2.9084ZM22.487 6.6498C21.0236 5.89549 18.1271 5.5636 16.4827 5.94075C5.03214 8.55069 7.18948 25.4172 18.9719 25.387C28.3103 25.3568 32.9569 12.5033 25.3082 7.85671C23.8297 6.96662 23.2413 7.73601 24.6745 8.70154C32.806 14.1628 24.056 27.9064 15.2003 23.5766C5.77137 18.9753 10.5537 5.47308 21.099 7.29852C22.321 7.52482 23.2866 7.05713 22.487 6.6498ZM16.3468 9.30499C13.4804 10.0291 11.7456 16.5917 13.1637 16.5917C13.4352 16.5917 13.5559 16.2598 13.5559 15.4753C13.5559 13.6046 15.6981 10.1951 17.1766 9.72742C17.9007 9.50112 17.1313 9.10887 16.3468 9.30499ZM18.7304 11.236C18.2628 11.5679 17.3426 13.0766 16.362 14.208C16.2111 14.3891 16.2261 14.6606 16.4223 14.8115C16.6184 14.9774 17.252 14.8869 17.6594 14.5249C18.2477 13.9968 18.2778 13.9818 18.2024 14.3438C18.0666 14.902 17.7951 16.6068 17.7498 17.2102C17.7046 17.7382 17.7046 17.7382 16.709 17.9042C13.9783 18.3568 15.6227 19.5939 16.5731 19.8051C17.433 20.0012 18.7455 19.9861 20.571 19.79C22.1551 19.624 21.5517 17.8137 19.9073 17.8137C19.1681 17.8137 19.1982 17.9495 19.5754 15.3999C20.1034 11.9149 20.1184 11.5378 19.711 11.2662C19.2886 10.9494 19.1378 10.9494 18.7304 11.236ZM25.1723 14.6908C25.1723 16.6068 24.1465 18.749 22.6378 19.9861C21.2952 21.0874 21.1895 21.6607 22.3813 21.5249C24.3878 21.2986 27.0581 15.3697 25.7456 14.0421C25.3382 13.6649 25.1723 13.8611 25.1723 14.6908ZM32.7457 26.5034C34.2845 28.6607 35.9439 31.4366 35.8534 31.678C35.8232 31.7384 34.9333 31.3612 33.8621 30.8332C31.1918 29.5056 30.9655 29.581 30.7392 31.7987C30.3621 35.4948 30.3621 35.4948 28.778 32.8547C26.7866 29.5056 26.2435 29.0077 23.9052 26.5487C24.6142 25.7943 24.7047 25.5077 27.4202 25.5379C29.5474 25.568 29.4418 25.6284 29.6832 24.1198L29.8793 22.8827C30.4526 23.4861 30.9202 23.9236 32.7457 26.5034ZM7.70239 24.6478C7.77782 25.6737 8.47179 25.9452 10.8705 25.915C13.5257 25.8849 13.5408 25.8999 12.0774 27.65C9.1205 31.1802 8.20018 33.081 7.11396 35.1328C6.72172 30.4259 6.84247 30.3806 5.89203 30.4108C5.34892 30.4258 3.55365 31.4215 2.79934 31.9043C2.13554 32.3418 2.13551 31.859 2.24111 31.5875C2.61827 30.5767 7.37049 23.7728 7.55153 23.9387C7.59679 23.9991 7.67222 24.331 7.70239 24.6478Z" fill="#757575"/>
</svg>
