<svg width="42" height="42" viewBox="0 0 42 42" fill="none" xmlns="http://www.w3.org/2000/svg">
<path d="M34.5459 17.0561L33.9632 15.0895L34.6187 14.2336C37.0406 11.047 32.5429 6.05765 28.9738 7.96964C28.5914 8.16994 28.1363 8.18815 27.4807 8.02426C26.2789 7.7147 22.3457 7.05917 21.5445 6.96812C18.8859 6.64035 19.6142 7.93321 20.7614 8.04247C23.3471 8.31561 23.2925 8.16993 22.6006 8.89831C21.5262 10.0455 22.4549 14.525 24.1666 16.4734C25.7144 18.2397 29.4655 19.1866 30.6309 18.094C32.9435 15.9089 32.3062 26.0333 29.9208 29.1289C22.4913 38.7981 6.83124 29.4749 9.65369 17.0561L9.98151 15.5994L11.329 16.4916C13.678 18.0576 14.6431 17.2746 12.8403 15.2716C9.89041 12.0121 10.892 7.86037 13.9876 10.5007C15.0255 11.393 16.3002 11.5205 16.8283 10.8103C18.3943 8.66159 19.3229 9.42638 19.3047 11.7208C19.3047 12.959 18.722 13.7966 16.3366 16.0182C14.2425 17.9666 14.1514 18.6221 15.9724 18.6221C17.1924 18.6221 21.1438 13.9423 21.4898 12.1032C21.9814 9.51742 18.4853 7.40514 16.4094 9.02578C15.9359 9.40817 15.6446 9.48101 15.4626 9.29892C15.2805 9.11682 15.3169 8.78905 15.8996 8.46128C16.4823 8.13351 17.3745 7.87859 17.1742 7.33231C16.9011 6.60393 14.8798 7.55082 14.6067 7.7147C14.3335 7.86038 13.3502 8.4977 12.5126 8.4977C9.63552 8.4977 8.54296 9.37175 8.77968 11.4658C8.90714 12.6312 8.83434 12.959 8.17881 14.1244C3.06197 23.1927 9.9815 34.6463 20.7068 34.8649C31.6142 35.1198 37.6051 27.3808 34.5459 17.0561ZM30.8676 15.1623C28.901 17.3475 28.6097 17.4385 26.989 16.4916C25.6962 15.7268 24.64 13.742 24.4215 11.6479C24.203 9.44459 25.332 8.86189 27.2622 10.173L28.2091 10.8285L29.1559 10.2094C31.8691 8.40666 35.4382 10.1001 30.8676 15.1623Z" fill="#757575"/>
<path d="M11.9482 21.1168C12.0756 21.4992 12.3488 22.7738 12.5673 23.9574C14.1879 32.789 28.3548 32.6251 29.0832 23.7753C29.1742 22.6828 29.3745 21.7177 29.5202 21.6266C30.7949 20.8072 27.3897 19.7147 24.9861 20.1881C24.2395 20.3338 21.3806 20.3702 17.9755 20.2792C11.6751 20.0971 11.6386 20.0971 11.9482 21.1168ZM27.3898 21.7177V23.0652C27.3898 28.0728 18.4489 30.8224 15.4808 26.7071C14.461 25.3049 14.4793 24.4491 14.3336 21.8087C22.7099 21.5356 22.9103 21.572 27.3898 21.7177Z" fill="#757575"/>
</svg>
