<svg width="40" height="40" viewBox="0 0 40 40" fill="none" xmlns="http://www.w3.org/2000/svg">
<g clip-path="url(#clip0_2206_4111)">
<path fill-rule="evenodd" clip-rule="evenodd" d="M37.8714 12.5879C30.3639 26.5479 15.367 32.2234 1.43811 24.3643C0.974414 24.1026 0.386395 24.2662 0.124697 24.7242C-0.137001 25.1903 0.0265778 25.7791 0.490274 26.0408C15.4202 34.4724 31.5219 28.4616 39.5692 13.5039C39.8211 13.0377 39.6452 12.4488 39.1766 12.1953C38.708 11.95 38.1233 12.1218 37.8714 12.5879Z" fill="#757575"/>
<path d="M13.1597 18.3771C14.7105 18.3771 15.9677 17.12 15.9677 15.5692C15.9677 14.0184 14.7105 12.7612 13.1597 12.7612C11.6089 12.7612 10.3517 14.0184 10.3517 15.5692C10.3517 17.12 11.6089 18.3771 13.1597 18.3771Z" fill="#757575"/>
<path d="M24.7842 15.3902C26.3047 15.3902 27.5373 14.1576 27.5373 12.6371C27.5373 11.1166 26.3047 9.88403 24.7842 9.88403C23.2637 9.88403 22.0311 11.1166 22.0311 12.6371C22.0311 14.1576 23.2637 15.3902 24.7842 15.3902Z" fill="#757575"/>
</g>
<defs>
<clipPath id="clip0_2206_4111">
<rect width="40" height="40" fill="white"/>
</clipPath>
</defs>
</svg>
