<svg width="80" height="80" viewBox="0 0 80 80" fill="none" xmlns="http://www.w3.org/2000/svg">
<path d="M48.2296 25.5459C50.5762 25.9726 51.2962 16.1593 49.0296 14.666C48.2029 14.106 47.3229 14.4526 46.9229 15.4926C45.1096 19.9726 45.7762 25.0926 48.2296 25.5459Z" fill="#757575"/>
<path d="M38.2562 27.1729C39.5362 27.8396 44.2562 28.0262 44.4962 27.4129C45.0296 25.9996 41.2696 24.9596 37.9896 25.5729C37.0829 25.7596 37.2429 26.6396 38.2562 27.1729Z" fill="#757575"/>
<path d="M48.0163 38.7462C49.7496 38.7462 50.0696 31.0662 48.3896 29.7862C47.6963 29.2795 46.2563 29.3328 45.963 29.8928C44.0163 33.4928 45.243 38.7462 48.0163 38.7462Z" fill="#757575"/>
<path d="M47.5096 42.2928C46.7363 42.6928 46.5496 43.5195 46.3096 47.9195C46.0696 52.7462 50.1496 56.9862 50.8963 46.2928C51.1096 43.0928 49.5629 41.2795 47.5096 42.2928Z" fill="#757575"/>
<path d="M56.3626 28.186C58.9226 28.3727 59.8029 28.026 59.2696 27.0127C58.6829 25.9193 51.2162 25.0393 50.8429 26.0259C50.4162 27.1194 52.4426 27.8927 56.3626 28.186Z" fill="#757575"/>
<path d="M24.6829 40.746C22.0696 40.4794 20.8696 40.2127 20.1762 40.7194C18.8962 41.6527 21.7763 42.9594 25.3229 43.0927C28.7896 43.1994 28.2296 41.1194 24.6829 40.746Z" fill="#757575"/>
<path d="M42.3362 52.4796C40.5229 52.2663 37.5629 52.1329 37.0562 52.2663C34.8429 52.7996 37.7495 54.4529 41.3495 54.7463C45.9095 55.1196 46.8429 53.0396 42.3362 52.4796Z" fill="#757575"/>
<path d="M45.6963 57.3595C43.6696 61.1195 44.8696 65.6795 47.8829 65.6795C49.0829 65.6795 50.7096 59.7061 49.9096 58.1861C49.3229 57.0928 46.1496 56.4795 45.6963 57.3595Z" fill="#757575"/>
<path d="M30.8696 44.7195C29.6696 43.9462 28.1229 43.8928 27.8029 44.6395C27.4029 45.5995 27.0296 50.2662 27.3229 50.8262C27.8562 51.8928 31.0296 52.5328 31.3762 51.6528C31.8829 50.2662 31.5362 45.1462 30.8696 44.7195Z" fill="#757575"/>
<path d="M59.4563 53.7595C58.1497 52.5861 51.2163 51.9995 50.8163 53.0128C50.363 54.2128 52.123 54.9061 56.2297 55.1195C60.123 55.3328 60.8697 55.0128 59.4563 53.7595Z" fill="#757575"/>
<path d="M28.4163 30.3996C27.163 30.6129 26.763 37.0129 27.9097 38.3996C28.8697 39.5463 31.883 40.7463 31.803 37.1729C31.6963 32.0529 31.5897 29.8929 28.4163 30.3996Z" fill="#757575"/>
<path d="M38.8163 40.6927C37.5363 40.1594 32.3629 40.1861 32.1763 40.7461C31.7229 41.8927 33.8563 42.7461 37.1896 42.7461C40.5496 42.7461 41.3496 41.7594 38.8163 40.6927Z" fill="#757575"/>
</svg>
