<svg width="32" height="32" viewBox="0 0 32 32" fill="none" xmlns="http://www.w3.org/2000/svg">
<path fill-rule="evenodd" clip-rule="evenodd" d="M12.6754 6.30611C12.5896 5.79753 12.5251 5.29473 12.4834 4.79188C12.4205 4.03759 12.4594 3.27754 12.4371 2.52325C12.4274 2.20325 12.3891 1.36898 12.4045 1.24898C12.5445 0.203263 13.3885 0.043244 13.6354 0.0146726C13.7548 -0.00247027 14.9811 -0.139552 15.2456 1.22045C15.5702 2.88331 15.6742 4.55757 15.5594 6.19757C15.8274 7.59185 16.2857 8.98039 16.8908 10.2375C19.2988 15.2375 23.8874 15.7233 28.8588 15.6775C29.6234 15.6661 30.2582 16.2661 30.2982 17.0261C30.3382 17.7918 29.7691 18.4547 29.008 18.5233C26.2291 18.7918 21.2988 21.0204 19.5942 23.3404C19.2376 23.8261 19.0302 24.9976 18.7559 26.1462C18.3731 27.7404 17.9177 29.3176 17.4074 29.9804C17.3308 30.0833 16.3999 31.1347 16.1222 31.289C15.4548 31.6547 14.9205 31.4433 14.6171 31.249C14.3137 31.0547 13.9702 30.6718 13.8331 30.0375C13.6896 29.3747 13.8108 28.0147 13.7885 27.7232C13.7074 26.6661 13.4959 24.5918 13.0645 22.809C12.832 21.849 12.5839 20.9633 12.1737 20.5233C10.6548 18.8947 8.22622 19.1347 6.18108 19.4033C5.94622 19.4318 5.71137 19.4662 5.47708 19.4947C4.64451 19.7404 3.76049 19.9233 2.8262 20.0318C1.41535 20.1975 1.18336 18.9004 1.17079 18.8147C1.14451 18.6261 1.04678 17.6547 2.11021 17.2661C2.22621 17.2261 3.08222 17.0375 3.41193 16.9633C3.87136 16.8604 4.33592 16.7804 4.80221 16.7061C9.61878 15.209 12.2348 11.0032 12.6754 6.30611ZM14.3285 11.5004C16.1468 15.2604 18.9062 17.0776 22.1771 17.9004H22.1765C20.1342 18.969 18.2765 20.3062 17.2919 21.649C16.9182 22.1576 16.5754 23.1804 16.2662 24.329C16.0988 23.2604 15.8725 22.1232 15.5737 21.1518C15.2337 20.0432 14.7759 19.1233 14.2651 18.5747C13.2788 17.5176 12.0411 16.929 10.7102 16.6376C12.3033 15.2262 13.5114 13.4662 14.3285 11.5004Z" fill="#757575"/>
</svg>
