<svg width="214" height="32" viewBox="0 0 214 32" fill="none" xmlns="http://www.w3.org/2000/svg">
<path fill-rule="evenodd" clip-rule="evenodd" d="M213.482 10.4302C212.612 6.74806 205.14 5.19769 182.684 3.9057C161.731 2.67831 137.338 -0.874675 94.7193 1.06331C62.1425 2.5491 21.5797 8.49225 21.5797 11.7868C21.5797 14.177 23.1611 14.2416 38.2635 12.1098C52.2193 10.1718 59.3751 9.71964 68.1123 9.20285C33.0844 14.2416 25.6123 17.5362 6.95183 20.7016C-4.75049 22.7042 2.08904 28.4535 6.35881 27.8721C6.39834 27.8721 60.8379 20.637 65.9774 21.0246C66.4518 21.0892 61.2728 22.252 54.4332 23.6085C35.3379 27.4845 39.0146 33.9438 53.3262 30.9722C101.48 20.9593 146.787 17.8585 181.696 22.1867C192.726 23.5433 193.952 23.5433 193.952 21.8637C193.952 18.8921 190.947 16.6318 186.243 16.1796C178.889 15.4044 150.582 13.2074 137.773 12.5614C136.784 12.4968 137.259 11.27 138.129 11.1408C143.347 10.301 184.78 10.9464 201.068 11.8508C213.047 12.4968 213.917 12.4328 213.482 10.4302Z" fill="#1582FF"/>
</svg>
